<?xml version="1.0" encoding="utf-8"?>
<!-- Generator: Adobe Illustrator 26.5.0, SVG Export Plug-In . SVG Version: 6.00 Build 0)  -->
<svg version="1.1" id="Layer_1" xmlns="http://www.w3.org/2000/svg" xmlns:xlink="http://www.w3.org/1999/xlink" x="0px" y="0px"
	 viewBox="0 0 1554 300" style="enable-background:new 0 0 1554 300;" xml:space="preserve">
<style type="text/css">
	.st0{fill:#00445F;}
</style>
<g transform="translate(0 0) scale(1.4285714285714286) translate(0 0)">
	<path class="st0" d="M105,0C47,0,0,47,0,105s47,105,105,105s105-47,105-105C209.9,47,163,0.1,105,0z M105,207.1
		C48.6,207.1,2.9,161.4,2.9,105S48.6,2.9,105,2.9S207.1,48.6,207.1,105C207,161.4,161.4,207,105,207.1z"/>
	<path class="st0" d="M166.6,97c-1.4-3.1-0.5-5.1-0.9-7.3s-2.7-7-4.3-10.8c-0.7-1.7,3.8-1.3,0.4-7.6c0-0.2,4.7-2,0-5.5
		c-2.4-1.9-4.4-4.1-6-6.7c-0.3-0.4-0.3-0.9,0-1.3c2.7-2.4,2.8-5.8-0.1-7.5s-4.5,0-6.7,1.4c-0.7,0.5-1.1,0.8-1.9,0.5l-1.8-1.2
		c2.7-2.6,3.3-5.2,3.1-5.6s-4.6-1.3-10.2,1l-0.4-0.3c2.3-3.9,1-6.7,0.9-6.9h-0.1c3.6-4.9,7.8-9.3,12.4-13.3h0.1
		c0.2-0.3,0.3-0.6-0.2-0.9l-1-0.6C105.3-0.3,49,15.8,24.3,60.4c-7.6,13.6-11.6,29-11.6,44.6c0,29.5,15,57.9,39.4,75.6
		c0.9,0.6,1.8,1.2,2.8,1.6c0.4,0.1,0.8,0.1,1.1-0.2l0.3-0.5c0.2-0.2,0.3-0.5,0.3-0.8c0-0.7-0.9-1.3-2.1-3c-3-4.5-4.6-9.7-4.7-15.1
		c-0.1-4.9,1.5-9.8,4.5-13.7c3.7,3.9,11.7,10.9,11.5,17.4c-0.2,6.5-6.9,6.8-5.4,12.2c0.9,3.4,3.4,2,3.9,4.6c0.7,4.4,6.7,7.3,9.3,6.9
		c0.7-0.1,1.2,0.4,2.4,1.7s6.2,1.6,8.2,1.2c2-0.4,4.1,1.4,8,0.9s6.1-0.9,8.2-0.9s22.5-0.3,36,1.8c2.4,0.4,3.1-0.7,2.1-2.5
		c-4.9-8.6-5.6-15.8-2.8-25c5,0.4,12.2,1.7,21.6-4c3.2-2.1,5.2-5.7,5.1-9.5c-0.1-2.1-1-4.7-0.5-6.7s1.3-2.7,2.1-3.2
		c3.6-2.6,1-4.6,0.4-4.8c1.5-1,2-3,1.1-4.6c-0.7-0.7-2.7-6.2-0.4-7.3c2.3-1.1,5.3-1.8,8.1-3.1c2.3-0.9,3.4-3.6,2.5-5.9
		c0,0,0-0.1-0.1-0.1C174.2,114.4,166.8,97.4,166.6,97z M64.7,179.1c-0.7,0.2-2.9,0.3-2.4-2.7s2.3-2.6,3.3-1.6S64.9,177.6,64.7,179.1
		z M151.7,53.2c1.2-0.8,2.5-1.1,3.3-0.4c2.6,2.6-2.9,4.1-1.8,6.1c2,3.2,4.5,6.1,7.5,8.4c1.2,1,1.4,3.1-3.3,4.1s-23.6,5.9-33.6,16.5
		c-12.5,13.2-20.4,30.3-21.5,28s-3.6-2.8-3.2-3.5C117,81.6,145.1,57.3,151.7,53.2z M159.9,74.9c-1,2.9-9.1,5.5-8.7,3.5
		s0-2.2,0.6-2.3s3.5-1.1,7.5-2.1C159.7,73.9,160.2,74.1,159.9,74.9L159.9,74.9z M139.3,80.2c-0.2-1.2,8.5-4.1,8.8-3.3s-1.8,6-4.7,7
		s-4.7,0.9-4.6,0.4C139.2,83,139.4,81.6,139.3,80.2L139.3,80.2z M119,125.8c-4,2.5-6.2-2.2-6.8-3.1c-0.6-0.9-0.8-2-0.5-3.1
		c0.3-1.4,0.5-3.3-0.4-9.3c-0.4-2.7,5-9.2,6.3-10.4s3.1,0.6,3.2,2.6c0.3,3.6-1.8,5.6-3.9,7.2s-3.1,4.4-2.6,5.1
		c0.8,0.3,1.6-0.1,1.9-0.9c1.5-3.3,6-4.9,6.7-6.7c0.7-1.8,0.3-4.4,0.2-5.6s0.9-1.2,1.6-1.1s1.4,1.4,1.8,2.7c2.9,7.5-4.3,12-5.5,13.8
		S122.1,123.9,119,125.8z M125.1,96.7c-2.2,1.5-5.3-0.5-4.7-1.4c3.1-4.3,7-8.1,11.5-11c3.4-2.1,3.8-2.3,4-1.1
		c0.1,2.7-0.8,5.4-2.6,7.5c-2.3,2.5-4.6,2.3-5.8,2.6C126.3,93.6,126.7,95.6,125.1,96.7L125.1,96.7z M105.8,122.3
		c-1-0.2-1.4-2.1-1.2-2.9s3.1-5.2,4-6.4c0.2-0.2,0.5-0.1,0.7,0.1c0,0.1,0.1,0.1,0.1,0.2C110,117.4,109.4,123.1,105.8,122.3z
		 M138,48.2c2.4-1.1,4.9-1.6,7.5-1.6c0.8,0.1-1.9,4.8-6.6,6.8c-4.7,2-8.5,2.5-8.9,2.3S134.1,49.9,138,48.2z M54.7,126.5
		c-1.5-1.7-2.8-2.6-2.9-2.5c-1.8,2.7-3.1,5.7-3.6,8.9c-4.5-8.6-7.1-18.2-7.5-27.9C39.3,69.6,69,41.1,105.2,41.2
		c7.7,0,15.3,1.6,22.4,4.6c-1.5,2-2.7,4.3-3.7,6.6c0-1.9-0.5-3.4-0.4-4.6s-5.1,0.9-9.7,8.3c-1,1.7-1.7,3.4-2.2,5.3
		c-0.1-2.8-0.7-4.9-0.9-4.9c-3.9,1.7-6.9,4.9-8.5,8.8c-0.5,1.1-0.8,2.2-1.1,3.4c-0.2-1.9-0.7-3.2-0.9-3.2s-5.9,2.3-8.6,8.9
		c-0.6,1.5-1,3-1.1,4.6c-0.5-2.3-1.4-3.7-1.7-3.4c-1.9,2.4-5.7,3.5-7.6,9.6c-0.5,1.4-0.7,2.8-0.7,4.2c-0.8-2-2-3.2-2.3-3.2
		s-6.1,5.5-7,10.9c-0.3,1.9-0.2,3.9,0.2,5.8c-1.1-1.8-2.5-3-3.1-4.8c-0.9,0.5-5.7,5-5.8,10.7c-0.1,2.1,0.1,4.1,0.7,6.1
		c-1.6-2.9-3.8-4.2-4.1-4.1s-4,4.1-4.8,11.1C54.1,123.4,54.3,125,54.7,126.5z M128.8,46.8c2.8-3.4,7.6-6.1,8.2-5.8
		c0.6,0.3-0.8,5.6-3.9,8.6s-8.1,6.2-8.6,6.1S126.2,49.8,128.8,46.8z M119.5,59.8c-2.3,1.7-4.2,3.9-5.6,6.4c-0.5,0.9-1.9-5,1.7-10.6
		c2.2-3.5,6.6-6.6,6.5-6.2S124.2,56,119.5,59.8z M109.4,67.3c-3.4,5.1-3.6,3.3-7.3,8.3c-0.2,0.2-0.2-6.5,1.1-9.4
		c2.1-4.7,5.7-7.4,6.2-7.5S111.3,64.5,109.4,67.3z M98.3,77.4c-1.7,3-3.3,2.3-6.2,6.7c-0.3,0.4-1.1-3.6,0.7-9.1c1-3,3.1-5.4,5.9-6.9
		C99.3,68,100.4,73.8,98.3,77.4z M88,88.1c-1.8,3.9-2.9,4-5,6.4c-0.3,0.4-1.8-3.7-0.4-8.8c1.4-5.1,4-5.6,5.3-7S89.9,84,88,88.1z
		 M79.6,94.7c0,1-0.1,2-0.4,3c-1.3,4.3-3.9,6.2-5.3,8.1c-0.9-1.8-1.4-3.8-1.6-5.8c0.1-4.3,2-8.4,5.2-11.2
		C78.3,88.8,79.6,92,79.6,94.7z M71.1,107.5c-0.1,4.2-2,8.1-5.1,10.8c-1.3-2.3-2-4.9-2.2-7.6c-0.2-6.3,2.4-8.5,3.6-9.7
		C67.9,102.8,71.1,104.2,71.1,107.5z M59,113.8c1.8,0.9,3.9,3.4,4.1,8.2s-3.2,8.7-4.6,9.4c-0.9-3.7-2.6-4.4-2.6-8
		C56,120,57.1,116.6,59,113.8z M66.3,126.3c4.6-2,9.6-1.7,9.8-1.5s-1.5,5.9-5.9,8.2s-9.5,2.7-10,2.1S61.7,128.3,66.3,126.3z
		 M65.9,122.9c0.3-1.5,3-6.5,7.1-8.3l0,0c2.9-1.3,6.2-1.8,9.4-1.5c0.5,0.2-1.7,5.6-5.8,7.6S70.1,121.6,65.9,122.9z M72.8,111.1
		c0.2-0.4,3.5-6.4,7.4-8.2c2.8-1.2,5.9-1.7,8.9-1.4c0.3,0.1-1.8,5.4-6.2,7.6C78.5,111.3,72.6,111.6,72.8,111.1z M81.7,99.2
		c-0.3-0.2,4.4-6.4,8.4-8.3c2.7-1.1,5.6-1.4,8.4-1c0.3,0.3-1.9,5.5-6.5,7.5C88.7,98.7,85.2,99.4,81.7,99.2L81.7,99.2z M92.4,87.4
		c-0.2-0.2,3.4-6.3,7.4-7.9s7.7-0.1,8.9,0s-1.3,4.5-6.6,6.4C96.8,87.8,93.1,87.7,92.4,87.4z M104.4,76c0.1-0.3,4.1-5.9,8.1-7.3
		c3-0.9,6.2-1,9.2-0.2c0.5,0.2-2.8,5-7.7,6.5S104.3,76.3,104.4,76z M116.5,66.1c-0.5-0.3,4.3-5.7,8.2-7.2c2.6-1,5.5-1.3,8.3-1
		c0.3,0.2-2.5,4.9-7.1,6.7C121.3,66.4,117.1,66.5,116.5,66.1z M50.2,175.3c-21.6-17.2-34.6-43.2-34.6-70.3
		c-0.1-49.3,39.9-89.4,89.2-89.4c14.5,0,28.8,3.5,41.6,10.2c0.2,0.1,0.3,0.3,0.2,0.5c0,0.1-0.1,0.1-0.1,0.2
		c-3.7,3.5-7.1,7.3-10.2,11.4c-9.8-4.6-20.5-7-31.3-7C64.1,31,31,64.1,30.9,105c-0.2,17.7,6.2,34.9,17.9,48.2
		c-1.3,3-1.9,6.2-1.9,9.4C46.9,167,48,171.4,50.2,175.3z M50.4,150.5L50.4,150.5c-10.9-12.7-16.7-28.9-16.5-45.5
		C34,65.8,65.8,34,105,33.9c10.2,0,20.3,2.1,29.6,6.4c-1.5,0.7-2.8,1.6-4.1,2.6c-8.1-3.5-16.7-5.2-25.5-5.1
		C67.9,37.9,37.9,67.9,37.8,105c0,16.1,5,30.2,14.8,42C52.1,147.9,51.3,149.1,50.4,150.5z M53.9,144.9c-1.3-1.2-4.1-4.3-4.4-8.3V136
		c0-4.3,1.9-8.6,2.4-9s5.3,3.3,5.4,8.7C57.3,139.1,56.1,142.3,53.9,144.9z M61.9,137.7c3.9-1.8,9.6-1.4,9.3-1.1s-1.8,5.8-6.2,8
		c-2.6,1.5-5.7,2-8.7,1.3C58.6,143.3,58.1,139.5,61.9,137.7z M67.1,184.2c-0.6-2.7-0.4-6.3,0.5-7.3s4.9-1.2,5-0.1s-1.1,5.4,0.3,10.2
		C72.6,187.7,68.3,187.4,67.1,184.2z M67.4,173.1c-0.3-2,1.6-3.9,1.6-8.2c0-4.3-6.6-12.6-11.1-17.3c2.7-0.1,5.4-0.7,7.9-1.9
		c6.6-3.1,7.9-10.1,8.1-10.4c-1.2-0.4-2.5-0.5-3.8-0.4l0.8-0.4c6.4-3.5,8.1-11,7.8-11.1c-1.3-0.3-2.7-0.4-4-0.3l2-0.7
		c6.8-2.7,8.7-10.3,8.5-10.6c-1.1-0.3-2.3-0.4-3.5-0.4l1.9-0.8c6.2-3.1,8.4-10.1,8.1-10.3c-1.1-0.3-2.2-0.4-3.3-0.4
		c1.5-0.3,3.1-0.9,4.5-1.5c6.7-2.9,8.9-9.3,8.6-9.6c-1-0.3-2-0.5-3-0.5c1.5-0.3,3-0.8,4.4-1.3c6.6-2.2,9.2-8.5,8.8-8.6l-3.7-0.8
		c2.2-0.1,4.5-0.6,6.6-1.3c7.1-2.4,9.6-6.7,9.8-8.6c-0.7-0.4-1.5-0.7-2.3-0.8c1.6-0.3,3.2-0.7,4.7-1.2c6.6-2.7,9.4-9.3,9.6-9.8
		c1.3-0.4,2.6-1,3.9-1.6l1.9-0.9l1.6,1.1c1,0.6,1.4,0.8,0.9,1.2C122,75,105,99.5,97.6,111.3c-0.2,0.4-0.6,0.3-1.3,0.3
		c-7.9-0.6-12.4,8.9-8.9,17.8c-0.4,1.8-4.2,5.3-4.5,5.5s-1,1.4,0.3,1.3c1.3-0.1,4.2-3.2,5.4-4.5c0.4,0.6,2.2,2,1.3,2.8
		c-4.1,4.1-8.8,7.7-13.9,10.5c-2.6,1.2,4.2,2.1,15.7-8.3c0.7-0.6,1.5,2.4,2.5,3.7c-2,6.5,2.9,19.1,2.1,23c-0.1,1.5-1.3,2.7-2.8,2.7
		c-11.4,0.3-12.5-0.3-18.3,1.4c-2.7,0.8-2,2.6-0.1,2.1s4.6-1.5,16.9-0.7c3.1,0.1,6.5-0.6,6.5-5.7c0-5.1-3.6-18.4-2.4-20.3
		c1,0.8,2.2,1.3,3.5,1.4c-0.2,4.5,7,19,3.8,27c-1.2,3-6.4,2.7-15.4,1.8C72.7,171.6,67.7,174.9,67.4,173.1L67.4,173.1z M102.5,183
		c-5.9,2-8.3-4.9-7.3-6.4s4.4,1,7.3-0.9S106,181.8,102.5,183L102.5,183z M75.5,187.3c-0.8-3.7-1.1-10,0.4-11.5s4.9-0.9,4.8,0.2
		c-0.3,4.3-2.1,9.2,1.2,14.1C83.2,192,76.7,192.3,75.5,187.3L75.5,187.3z M86.9,191.5c-1.6-0.4-6-7.4-2.4-15.8
		c0.3-0.8,5.8-0.3,6.8,0s-0.8,6.8,6.8,9.8C98.8,185.8,98,194.3,86.9,191.5L86.9,191.5z M134.1,168.2c-2.5,8.8-3.8,12.3,0,21.9
		c0.5,1.3,0.9,2.3-0.2,2.1c-7.7-1.4-9.4-2.6-33.7-0.6c-1.7,0.2,0.6-3.4,0.3-5.8c2.2-0.3,5.8-1.3,6.5-4.9s-2.1-7.6-1.8-8.2
		c3.5-6.7-0.2-14.1-3.1-26.6c-0.3-1.2,0.4-1.7,0.9-1.1c15.6,16.9,25.5,20.2,30.9,21.8C134.4,167,134.3,167.6,134.1,168.2
		L134.1,168.2z M174,122.1c-3.3,2.9-8.3,3.1-10.3,4.9c-2,1.8-1.5,2.5-0.4,5.2s1.1,1.7-1.1,2.3s-4.1,5.8-8.8,4.9
		c-1.8-0.3-0.5,0.8,0.2,0.9c2.6,0.3,3.7-0.5,4.6-1.4s2.2-2.4,3.6-2.9s2.9-0.5,3,0.6s-1.9,2.1-2.7,2.5c1,0.5,3.9,1.9,1.4,3.6
		c-2.5,1.7-4.6-0.5-4.9-0.7s-1.7-0.2-1.3,0.3s5.2,1.3,4.5,2.2c-3.5,4.7-0.6,7.5-1.7,12.3s-7.7,7.5-12.8,8.4
		c-17.4,3.1-34.3-11.6-44.2-22.8c0.9-2.1,0.8-4.8-0.1-3.8s-0.7,2.4-2.8,2.9c-3.9,1-5.7-5.9-6.9-7.1c-4.8-4.7-6.7-11.4-3.9-17.3
		s9-4.7,11.4-1.1s1.7,7,3.4,8.3s4.8,0.2,5.4,0s1.7,4.3,8,4.1s5.9-10.7,6.9-11.6c8.6-8.4,4.2-15.9,2.6-17.6c-1.6-1.7,1-3.6,1.5-3.7
		c4.2-0.9,7.7-3.7,9.4-7.7c0,0,8.4-0.2,11.4-6.2c0.8-1.6,3.3,1.5,8.9-2.9c0.3-0.3,0.8-0.4,1.1-0.1c0.1,0.1,0.2,0.3,0.3,0.4
		c3.7,8.9,5.2,11.3,4.9,15.8s8.7,21.5,9.4,23.1S174.8,121.3,174,122.1z"/>
	<path class="st0" d="M153.8,90c-4.9,0.2-10.6,6.2-12.4,7s-1.3,1.5-0.2,1.1s5.9-4.7,10.7-6.4s3.6,1.8,5,1.6S156.6,89.9,153.8,90z"/>
	<path class="st0" d="M154.9,94.8c-0.4,0.1,0.4,2.2-1.7,2.3c-4.6,0.3-8.3,4.7-11.1,6c-1.2,0.7-2.5,1.1-3.8,1.4
		c-0.2,0-0.3,0.2-0.2,0.4c0,0.2,0.2,0.3,0.4,0.2c11.7,1.6,16.2,1.1,16.3,0.7c0.1-0.4-0.6-1.2-0.4-1.7c0.5-1.8,0.5-3.7,0.1-5.5
		c-0.2-0.8,1.8-0.3,1.8-1.3S155.6,94.7,154.9,94.8z M153.1,104.1c-0.2,0.9-5.5,0.5-8.3,0.2c-0.7,0-1.8-0.1,0.3-1.4s4.1-2.8,7.2-3.4
		c0.4,0,0.7,0.2,0.8,0.6C153.4,101.4,153.4,102.8,153.1,104.1L153.1,104.1z"/>
	<path class="st0" d="M168.4,120.8c-0.9,0-4.5,1.6-5.9,2.5s-4.4,2.7-4.2-0.8c0.1-1.3,0.9-4.4,0.9-5.3s-1-0.7-1.1,0
		c-0.1,1.8-0.3,3.6-0.7,5.3c-0.4,1.8,1.2,4,3.6,2.7s4.8-2.9,7.3-3.4C168.9,121.7,169,120.8,168.4,120.8z"/>
	<path class="st0" d="M100.5,133.6c-0.7-0.3-0.5,1.2-1.4,1s-0.2-1.3-1.8-3s-2.8-1.2-4.3-3.6c-1.5-2.4-0.3-12,3.1-10.8s1.6,5,1,8
		c-0.6,3,2.5,2.8,2.8,2.1c0.3-0.7-1.1-0.9-1.4-1.9s3.5-7.6-1.8-9.4c-3.8-1.3-6.4,3.6-5.9,8.9c0.1,3.2,2.1,6,5.1,7.1
		c2.3,0.8,0.6,4,3.7,4C101,136,101.3,133.9,100.5,133.6z"/>
	<path class="st0" d="M131.3,33.4c0.2,0.1,0.3,0,0.5-0.1l6.5-8.3c0.1-0.2,0-0.5-0.2-0.6L137,24c-0.2-0.1-0.4,0-0.5,0.1l-6.5,8.3
		c-0.2,0.2-0.1,0.5,0.2,0.6L131.3,33.4z"/>
	<path class="st0" d="M119.2,30l1.1,0.3c0.2,0,0.4-0.1,0.5-0.3l3.8-9.4c0.1-0.2,0-0.4-0.1-0.5c0,0-0.1,0-0.2-0.1l-1.2-0.2h-0.3
		l-3.9,9.6c-0.1,0.2,0,0.4,0.1,0.5C119.1,30,119.1,30,119.2,30z"/>
	<path class="st0" d="M105.8,28.7h1.1c0.2,0.1,0.4-0.1,0.4-0.3l1-10c0-0.2-0.2-0.5-0.4-0.5h-1.1c-0.3,0-0.4,0.2-0.5,0.4l-0.9,10
		C105.4,28.5,105.6,28.7,105.8,28.7L105.8,28.7z"/>
	<path class="st0" d="M92.8,29.7l1.1-0.2c0.2,0,0.4-0.2,0.3-0.4l-1.9-9.9c0-0.2-0.2-0.4-0.4-0.3h-1.2c-0.2,0.1-0.4,0.3-0.3,0.5
		l1.9,9.9C92.3,29.6,92.5,29.7,92.8,29.7z"/>
	<path class="st0" d="M79.4,32.8l0.5,0.2l1.1-0.4c0.2,0,0.4-0.2,0.4-0.4c0-0.1,0-0.1-0.1-0.2l-4.6-9c-0.1-0.2-0.3-0.3-0.5-0.2
		l-1,0.3c-0.2,0-0.4,0.2-0.4,0.4c0,0.1,0,0.1,0.1,0.2L79.4,32.8z"/>
	<path class="st0" d="M67,38.5c0.1,0.2,0.3,0.2,0.5,0.1l1-0.6c0.2-0.1,0.3-0.4,0.1-0.5c0,0,0,0,0-0.1l-6.7-7.7
		c-0.2-0.2-0.4-0.2-0.5-0.1l-1,0.6c-0.3,0.1-0.3,0.4-0.1,0.6L67,38.5z"/>
	<path class="st0" d="M55.4,46.7c0.2,0.1,0.4,0.1,0.5-0.1l0.9-0.7c0.2-0.2,0.2-0.5,0-0.7l-8.5-5.9h-0.5l-0.9,0.8
		c-0.2,0.2-0.2,0.5,0,0.7L55.4,46.7z"/>
	<path class="st0" d="M45.4,57.1c0.2,0,0.3-0.1,0.4-0.2l0.8-0.9c0.2-0.2,0.1-0.5-0.2-0.6l-9.8-3.8c-0.2-0.1-0.4-0.1-0.5,0.1
		l-0.7,0.9c-0.2,0.1-0.2,0.4,0,0.6c0.1,0.1,0.1,0.1,0.2,0.1L45.4,57.1z"/>
	<path class="st0" d="M26.8,67.8l10.5,1.5c0.2,0,0.4-0.1,0.4-0.3l0.6-1c0.1-0.2,0-0.4-0.1-0.5c0,0-0.1,0-0.2-0.1l-10.5-1.5L27,66.1
		c-0.1,0.4-0.3,0.8-0.5,1.1c-0.1,0.2,0,0.4,0.1,0.5C26.7,67.8,26.7,67.8,26.8,67.8z"/>
	<path class="st0" d="M21.1,83.7l10.7-1c0.2,0,0.3-0.1,0.3-0.3l0,0c0.2-0.4,0.3-0.7,0.4-1.1c0.1-0.2,0-0.4-0.1-0.5
		c-0.1,0-0.2-0.1-0.3-0.1l-10.8,1L20.9,82l-0.3,1.2C20.6,83.5,20.8,83.8,21.1,83.7z"/>
	<path class="st0" d="M29.2,96.5c0-0.4,0.1-0.9,0.1-1.3s-0.2-0.5-0.5-0.4l-10.4,3.6c-0.2,0.1-0.3,0.2-0.3,0.4S18,99.6,18,100
		c0,0.2,0.1,0.4,0.3,0.5c0.1,0,0.2,0,0.3-0.1l10.3-3.6C29.1,96.8,29.2,96.7,29.2,96.5L29.2,96.5z"/>
	<path class="st0" d="M28.9,110.8v-1.3c0-0.3-0.3-0.5-0.6-0.4c-0.1,0-0.1,0-0.1,0l-9.4,6.3c-0.2,0-0.2,0.2-0.2,0.4s0.1,0.8,0.1,1.2
		c0.1,0.3,0.4,0.4,0.6,0.3c0,0,0.1,0,0.1,0l9.4-6.2C28.9,111,29,110.9,28.9,110.8z"/>
	<path class="st0" d="M31.3,125l-0.3-1.3c0-0.2-0.2-0.4-0.5-0.3c-0.1,0-0.2,0.1-0.2,0.1l-7.7,8.5c-0.1,0.1-0.2,0.3-0.1,0.4
		s0.3,0.8,0.4,1.2c0,0.2,0.2,0.4,0.5,0.3c0.1,0,0.2-0.1,0.2-0.1l7.6-8.4C31.3,125.3,31.3,125.2,31.3,125z"/>
	<path class="st0" d="M35.2,137.7L29.8,148c-0.1,0.1,0,0.3,0,0.4l0.7,1.2c0.1,0.2,0.4,0.2,0.6,0.1c0.1,0,0.1-0.1,0.1-0.2l5.4-10.2
		c0-0.1,0.1-0.2,0-0.4l-0.6-1.2c-0.2-0.2-0.5-0.3-0.7-0.1C35.3,137.6,35.2,137.7,35.2,137.7z"/>
	<path class="st0" d="M42.9,149.3c-0.2-0.3-0.7-0.2-0.7,0.1l-2.9,12c-0.1,0.2,0,0.3,0,0.4l1,1c0.1,0.2,0.4,0.2,0.6,0.1
		c0.1,0,0.1-0.1,0.1-0.2l2.8-11.9c0.1-0.1,0-0.2,0-0.3L42.9,149.3z"/>
</g>
<g transform="translate(366.666 41.434619)">
	<g transform="translate(0 99.060381)">
		<path class="st0" d="M5.5-62h16.6l15.8,45l15.7-45h16.7V0H57.6v-17l1.3-29.3L42.2,0h-8.7L16.9-46.2L18.2-17V0H5.5V-62z M129.6,0
			l-4.3-12.7H103L98.8,0H85.3l22.9-62H120l23.1,62H129.6z M114.1-46.3L106.5-23h15.4L114.1-46.3z M168-62l11.5,21.4L191.1-62h14.6
			l-17.9,30.7L206.2,0h-14.8l-11.8-21.7L167.7,0h-14.8l18.4-31.3l-18-30.7H168z M275.3-21.7h-11.1V0h-12.7v-62h24
			c4.6,0,8.7,0.9,12.2,2.6c3.5,1.7,6.2,4.1,8.1,7.3c1.9,3.1,2.8,6.7,2.8,10.7l0,0c0,6.1-2.1,10.9-6.2,14.4
			C288.3-23.5,282.6-21.7,275.3-21.7L275.3-21.7z M264.2-51.7V-32h11.3c3.4,0,5.9-0.8,7.7-2.4c1.8-1.6,2.6-3.9,2.6-6.9l0,0
			c0-3.1-0.9-5.6-2.7-7.5c-1.8-1.9-4.2-2.9-7.4-2.9l0,0H264.2z M329.2-62v51.8h27V0h-39.7v-62H329.2z M411.6,0l-4.3-12.7H385
			L380.8,0h-13.5l22.9-62H402l23.1,62H411.6z M396.1-46.3L388.5-23h15.4L396.1-46.3z M489.6-62V0h-12.7l-24.7-40.8V0h-12.7v-62h12.7
			L477-21.1V-62H489.6z M545.2-20.4h12.7c-0.5,6.6-2.9,11.9-7.3,15.7S540.3,1,533.1,1l0,0c-7.9,0-14.1-2.6-18.6-7.9
			c-4.5-5.3-6.8-12.6-6.8-21.8l0,0v-3.7c0-5.9,1-11.1,3.1-15.6c2.1-4.5,5.1-7.9,9-10.3c3.9-2.4,8.4-3.6,13.5-3.6l0,0
			c7.1,0,12.8,1.9,17.2,5.7c4.3,3.8,6.9,9.2,7.5,16l0,0h-12.7c-0.3-4-1.4-6.9-3.3-8.7c-1.9-1.8-4.8-2.7-8.7-2.7l0,0
			c-4.2,0-7.4,1.5-9.5,4.5c-2.1,3-3.2,7.7-3.2,14l0,0v4.6c0,6.6,1,11.4,3,14.5c2,3.1,5.2,4.6,9.5,4.6l0,0c3.9,0,6.8-0.9,8.8-2.7
			C543.8-13.8,544.9-16.6,545.2-20.4L545.2-20.4z M609.6,0l-15.8-24.9l-6.6,7.2V0h-12.7v-62h12.7v28.1l5.6-7.7L608.5-62h15.6
			l-21.9,27.5L624.7,0H609.6z M682-62V0h-12.7v-62H682z M752.6-62V0h-12.7l-24.7-40.8V0h-12.7v-62h12.7L740-21.1V-62H752.6z
			 M804.5-16L804.5-16c0-2.4-0.8-4.2-2.5-5.5c-1.7-1.3-4.7-2.6-9.1-4c-4.4-1.4-7.9-2.8-10.5-4.2l0,0c-7-3.8-10.5-8.8-10.5-15.2l0,0
			c0-3.3,0.9-6.3,2.8-8.9c1.9-2.6,4.6-4.6,8.1-6.1c3.5-1.5,7.5-2.2,11.8-2.2l0,0c4.4,0,8.3,0.8,11.8,2.4c3.4,1.6,6.1,3.8,8,6.7
			c1.9,2.9,2.9,6.2,2.9,9.8l0,0h-12.7c0-2.8-0.9-5-2.7-6.5c-1.8-1.5-4.3-2.3-7.5-2.3l0,0c-3.1,0-5.5,0.6-7.2,1.9
			c-1.7,1.3-2.6,3-2.6,5.1l0,0c0,2,1,3.6,3,5c2,1.3,5,2.6,8.9,3.8l0,0c7.2,2.2,12.5,4.8,15.8,8c3.3,3.2,5,7.2,5,12l0,0
			c0,5.3-2,9.5-6,12.5c-4,3-9.5,4.5-16.3,4.5l0,0c-4.7,0-9.1-0.9-12.9-2.6C778-3.3,775-5.7,773-8.7c-2-3-3.1-6.5-3.1-10.4l0,0h12.7
			c0,6.7,4.1,10.1,12.2,10.1l0,0c3,0,5.4-0.6,7.1-1.8C803.6-12.1,804.5-13.8,804.5-16z M880.9-62v10.3H862V0h-12.7v-51.7h-18.6V-62
			H880.9z M910-62V0h-12.7v-62H910z M975.9-62v10.3H957V0h-12.7v-51.7h-18.6V-62H975.9z M1025.4-62h12.8v40.9
			c0,6.8-2.1,12.2-6.3,16.1c-4.2,4-10,5.9-17.3,5.9l0,0c-7.2,0-12.9-1.9-17.1-5.8c-4.2-3.8-6.4-9.1-6.5-15.8l0,0V-62h12.7v41.1
			c0,4.1,1,7.1,2.9,8.9c1.9,1.9,4.6,2.8,8,2.8l0,0c7.1,0,10.8-3.8,10.9-11.4l0,0V-62z M1103.9-62v10.3H1085V0h-12.7v-51.7h-18.6V-62
			H1103.9z M1156.6-37v9.9h-24.4v16.9h28.6V0h-41.3v-62h41.2v10.3h-28.5V-37H1156.6z"/>
	</g>
	<g transform="translate(0 179.070381)">
		<path class="st0" d="M33.2-27v5.4H12.3V0H5.8v-50h30.8v5.4H12.3V-27H33.2z M85.1-26v3.1c0,4.9-0.8,9.1-2.5,12.7
			c-1.6,3.6-4,6.4-7,8.3S69.1,1,65.1,1l0,0c-3.9,0-7.4-1-10.4-2.9c-3-1.9-5.4-4.7-7.1-8.2c-1.7-3.6-2.5-7.7-2.6-12.3l0,0V-26
			c0-4.8,0.8-9,2.5-12.6c1.7-3.7,4-6.5,7.1-8.4C57.6-49,61.1-50,65-50l0,0c4,0,7.5,1,10.5,2.9c3,1.9,5.4,4.7,7,8.4
			C84.2-35.1,85.1-30.9,85.1-26L85.1-26z M78.5-22.4v-3.7c0-5.9-1.2-10.4-3.6-13.5c-2.4-3.1-5.7-4.7-9.9-4.7l0,0
			c-4.1,0-7.4,1.6-9.8,4.7c-2.4,3.1-3.6,7.5-3.7,13.1l0,0v3.6c0,5.7,1.2,10.2,3.6,13.4s5.7,4.9,9.9,4.9l0,0c4.2,0,7.5-1.5,9.8-4.6
			C77.3-12.3,78.5-16.7,78.5-22.4L78.5-22.4z M126.8,0L116-20.6h-11.7V0h-6.6v-50h16.5c5.6,0,9.9,1.3,12.9,3.8c3,2.5,4.5,6.2,4.5,11
			l0,0c0,3.1-0.8,5.8-2.5,8c-1.7,2.3-4,4-7,5.1l0,0l11.7,21.6V0H126.8z M104.3-44.6V-26h10.1c3.3,0,5.9-0.8,7.8-2.5
			c1.9-1.7,2.9-3.9,2.9-6.7l0,0c0-3-0.9-5.4-2.8-7c-1.8-1.6-4.5-2.4-7.9-2.5l0,0H104.3z M178.4-21.8L178.4-21.8
			c-5.6-1.6-9.7-3.6-12.3-5.9c-2.6-2.4-3.8-5.3-3.8-8.7l0,0c0-3.9,1.6-7.2,4.7-9.7c3.1-2.6,7.2-3.8,12.2-3.8l0,0
			c3.4,0,6.5,0.7,9.2,2c2.7,1.3,4.8,3.1,6.2,5.5c1.5,2.3,2.2,4.9,2.2,7.6l0,0h-6.6c0-3-1-5.4-2.9-7.1c-1.9-1.7-4.6-2.6-8.1-2.6l0,0
			c-3.2,0-5.8,0.7-7.6,2.1c-1.8,1.4-2.7,3.4-2.7,5.9l0,0c0,2,0.9,3.7,2.6,5.1s4.6,2.7,8.8,3.8c4.1,1.2,7.4,2.4,9.7,3.8
			c2.3,1.4,4.1,3,5.2,4.9c1.1,1.9,1.7,4.1,1.7,6.6l0,0c0,4-1.6,7.2-4.7,9.7C189-0.2,184.8,1,179.6,1l0,0c-3.4,0-6.6-0.7-9.6-2
			c-3-1.3-5.2-3.1-6.9-5.4c-1.6-2.3-2.4-4.9-2.4-7.8l0,0h6.6c0,3,1.1,5.4,3.3,7.1c2.2,1.7,5.2,2.6,8.9,2.6l0,0c3.5,0,6.1-0.7,8-2.1
			c1.8-1.4,2.8-3.3,2.8-5.8c0-2.4-0.9-4.3-2.6-5.6C186-19.2,182.9-20.5,178.4-21.8z M236.9-29v5.4h-21.6v18.3h25V0h-31.6v-50H240
			v5.4h-24.7V-29H236.9z M280.8-15.5h6.6c-0.6,5.3-2.6,9.3-5.8,12.2c-3.3,2.9-7.6,4.3-13,4.3l0,0c-5.9,0-10.6-2.1-14.1-6.3
			c-3.5-4.2-5.3-9.8-5.3-16.9l0,0V-27c0-4.6,0.8-8.7,2.5-12.2s4-6.2,7-8.1c3-1.9,6.5-2.8,10.5-2.8l0,0c5.3,0,9.5,1.5,12.7,4.4
			c3.2,3,5,7,5.6,12.3l0,0h-6.6c-0.6-4-1.8-6.8-3.7-8.6c-1.9-1.8-4.6-2.7-8-2.7l0,0c-4.2,0-7.5,1.5-9.9,4.6
			c-2.4,3.1-3.6,7.5-3.6,13.2l0,0v4.8c0,5.4,1.1,9.7,3.4,12.8c2.3,3.2,5.4,4.8,9.5,4.8l0,0c3.6,0,6.4-0.8,8.4-2.5
			C278.9-8.5,280.1-11.4,280.8-15.5L280.8-15.5z M328.2-50h6.6v34.2c0,4.7-1.5,8.6-4.4,11.6c-2.9,3-6.9,4.7-11.9,5.1l0,0L316.7,1
			c-5.4,0-9.8-1.5-13-4.5s-4.9-7.1-4.9-12.3l0,0V-50h6.5v34.1c0,3.6,1,6.5,3,8.5c2,2,4.8,3,8.5,3l0,0c3.7,0,6.5-1,8.5-3s3-4.8,3-8.5
			l0,0V-50z M376.8,0L366-20.6h-11.7V0h-6.6v-50h16.5c5.6,0,9.9,1.3,12.9,3.8c3,2.5,4.5,6.2,4.5,11l0,0c0,3.1-0.8,5.8-2.5,8
			c-1.7,2.3-4,4-7,5.1l0,0l11.7,21.6V0H376.8z M354.3-44.6V-26h10.1c3.3,0,5.9-0.8,7.8-2.5c1.9-1.7,2.9-3.9,2.9-6.7l0,0
			c0-3-0.9-5.4-2.8-7c-1.8-1.6-4.5-2.4-7.9-2.5l0,0H354.3z M400.8-50V0h-6.6v-50H400.8z M449.2-50v5.4h-16V0h-6.5v-44.6h-16V-50
			H449.2z M462-50L475-24.9l13-25.1h7.5l-17.2,31.4V0h-6.6v-18.6L454.5-50H462z M557,0l-4.8-12.6h-20.8L526.7,0H520l19-50h5.7l19,50
			H557z M541.8-41.9L533.4-18h16.9L541.8-41.9z M611-50V0h-6.6l-25-38.5V0h-6.6v-50h6.6l25.1,38.7V-50H611z M639.5,0h-13.8v-50h14
			c4.3,0,8.1,1,11.5,2.9c3.3,1.9,5.9,4.7,7.7,8.2c1.8,3.6,2.7,7.6,2.8,12.2l0,0v3.2c0,4.7-0.9,8.8-2.7,12.4s-4.4,6.3-7.8,8.2
			C647.9-1,644,0,639.5,0L639.5,0z M640-44.6h-7.7v39.2h6.9c5.1,0,9-1.6,11.8-4.7c2.8-3.2,4.2-7.7,4.2-13.5l0,0v-2.9
			c0-5.7-1.3-10.1-4-13.3C648.6-43,644.9-44.6,640-44.6L640-44.6z M713.1-19.6h-11.7V0h-6.6v-50h18.3c5.4,0,9.7,1.4,12.8,4.2
			c3.1,2.8,4.6,6.5,4.6,11.1l0,0c0,4.8-1.5,8.6-4.5,11.2C723-20.9,718.7-19.6,713.1-19.6L713.1-19.6z M701.3-44.6V-25h11.8
			c3.5,0,6.2-0.8,8.1-2.5c1.9-1.7,2.8-4.1,2.8-7.2l0,0c0-3-0.9-5.4-2.8-7.1c-1.9-1.8-4.4-2.7-7.7-2.8l0,0H701.3z M770.8,0L760-20.6
			h-11.7V0h-6.6v-50h16.5c5.6,0,9.9,1.3,12.9,3.8c3,2.5,4.5,6.2,4.5,11l0,0c0,3.1-0.8,5.8-2.5,8c-1.7,2.3-4,4-7,5.1l0,0l11.7,21.6V0
			H770.8z M748.3-44.6V-26h10.1c3.3,0,5.9-0.8,7.8-2.5c1.9-1.7,2.9-3.9,2.9-6.7l0,0c0-3-0.9-5.4-2.8-7c-1.8-1.6-4.5-2.4-7.9-2.5l0,0
			H748.3z M794.8-50V0h-6.6v-50H794.8z M811.1-50l14.2,41.2L839.5-50h7.2L828.2,0h-5.8L804-50H811.1z M886,0l-4.8-12.6h-20.8
			L855.7,0H849l19-50h5.7l19,50H886z M870.8-41.9L862.4-18h16.9L870.8-41.9z M931.8-15.5h6.6c-0.6,5.3-2.6,9.3-5.8,12.2
			c-3.3,2.9-7.6,4.3-13,4.3l0,0c-5.9,0-10.6-2.1-14.1-6.3c-3.5-4.2-5.3-9.8-5.3-16.9l0,0V-27c0-4.6,0.8-8.7,2.5-12.2
			c1.7-3.5,4-6.2,7-8.1c3-1.9,6.5-2.8,10.5-2.8l0,0c5.3,0,9.5,1.5,12.7,4.4c3.2,3,5,7,5.6,12.3l0,0h-6.6c-0.6-4-1.8-6.8-3.7-8.6
			c-1.9-1.8-4.6-2.7-8-2.7l0,0c-4.2,0-7.5,1.5-9.9,4.6c-2.4,3.1-3.6,7.5-3.6,13.2l0,0v4.8c0,5.4,1.1,9.7,3.4,12.8
			c2.3,3.2,5.4,4.8,9.5,4.8l0,0c3.6,0,6.4-0.8,8.4-2.5C929.9-8.5,931.1-11.4,931.8-15.5L931.8-15.5z M953-50L966-24.9l13-25.1h7.5
			l-17.2,31.4V0h-6.6v-18.6L945.5-50H953z"/>
	</g>
</g>
</svg>
